<?xml version="1.0" standalone="no"?>
<!DOCTYPE svg PUBLIC "-//W3C//DTD SVG 20010904//EN"
 "http://www.w3.org/TR/2001/REC-SVG-20010904/DTD/svg10.dtd">
<svg version="1.0" xmlns="http://www.w3.org/2000/svg"
 width="135.000000pt" height="147.000000pt" viewBox="0 0 135.000000 147.000000"
 preserveAspectRatio="xMidYMid meet">

<g transform="translate(0.000000,147.000000) scale(0.100000,-0.100000)"
fill="#000000" stroke="none">
<path d="M555 1411 c-216 -47 -379 -170 -472 -356 -90 -179 -86 -417 10 -600
19 -37 65 -93 117 -145 133 -134 268 -190 460 -190 305 0 553 196 631 497 36
144 17 297 -55 447 -99 202 -321 343 -556 352 -52 2 -113 -1 -135 -5z m374
-322 c43 -43 41 -84 -8 -192 -41 -87 -68 -117 -108 -117 -41 0 -70 40 -101
139 -33 106 -31 140 13 179 22 18 38 22 100 22 69 0 75 -2 104 -31z m-425 -4
c18 -9 46 -34 62 -56 16 -22 46 -63 67 -89 20 -27 37 -54 37 -59 0 -5 4 -11 8
-13 11 -4 82 -103 82 -114 0 -5 9 -20 20 -34 11 -14 20 -31 20 -39 0 -8 -14 5
-30 27 -31 44 -48 56 -30 23 11 -22 2 -54 -55 -178 -23 -52 -45 -85 -57 -89
-33 -10 -65 4 -78 36 -7 17 -14 29 -16 27 -2 -2 9 -34 25 -73 24 -59 32 -71
62 -81 24 -9 28 -12 13 -12 -12 -1 -31 7 -42 17 -25 22 -88 140 -136 257 -21
50 -62 145 -92 212 -61 138 -68 187 -31 220 12 11 29 23 37 26 30 11 103 7
134 -8z m260 -540 c-20 -47 -38 -84 -41 -82 -2 3 12 41 32 85 19 44 35 86 36
94 0 9 2 9 5 1 3 -6 -11 -50 -32 -98z m-60 -136 c-11 -18 -26 -34 -34 -36 -12
-3 -11 -2 1 6 9 6 22 24 29 41 7 17 15 28 18 26 2 -3 -4 -20 -14 -37z"/>
<path d="M706 1030 c-4 -17 5 -59 26 -125 29 -86 37 -101 60 -109 50 -18 70 2
116 114 23 56 40 106 36 112 -4 5 -20 -23 -36 -64 -35 -87 -52 -108 -88 -108
-15 0 -34 8 -42 18 -14 15 -51 117 -61 167 -3 18 -5 17 -11 -5z"/>
<path d="M334 1045 c-14 -21 -14 -30 -5 -48 7 -13 10 -15 6 -4 -5 19 10 57 29
69 8 5 7 8 -1 8 -7 0 -20 -11 -29 -25z"/>
<path d="M400 825 c0 -5 5 -17 10 -25 5 -8 10 -10 10 -5 0 6 -5 17 -10 25 -5
8 -10 11 -10 5z"/>
</g>
</svg>
